<svg width="48" height="48" viewBox="0 0 48 48" fill="none" xmlns="http://www.w3.org/2000/svg">
<rect width="48" height="48" fill="white"/>
<ellipse cx="18" cy="40" rx="16" ry="6" stroke="#152C5B" stroke-width="3" stroke-linecap="round"/>
<path d="M30.5 11.0118C30.5 12.3569 30.1404 14.8565 29.4376 17.9286C28.7423 20.9677 27.7357 24.4608 26.4955 27.7585C25.2495 31.0718 23.7957 34.1122 22.2304 36.2956C20.602 38.5669 19.1528 39.5 18 39.5C16.8472 39.5 15.398 38.5669 13.7696 36.2956C12.2043 34.1121 10.7505 31.0718 9.50451 27.7585C8.26434 24.4608 7.25773 20.9677 6.56241 17.9286C5.85956 14.8565 5.5 12.3569 5.5 11.0118C5.5 6.07412 10.7409 1.5 18 1.5C25.2591 1.5 30.5 6.07412 30.5 11.0118Z" fill="white" stroke="#152C5B" stroke-width="3"/>
<circle cx="18" cy="16" r="6" stroke="#FF498B" stroke-width="3" stroke-linecap="round"/>
</svg>
