<svg width="48" height="48" viewBox="0 0 48 48" fill="none" xmlns="http://www.w3.org/2000/svg">
<rect width="48" height="48" fill="white"/>
<mask id="path-2-inside-1_24_71" fill="white">
<path fill-rule="evenodd" clip-rule="evenodd" d="M19.2361 7C18.4785 7 17.786 7.42801 17.4472 8.10557L15.5 12H8C3.58172 12 0 15.5817 0 20V34C0 38.4183 3.58172 42 8 42H40C44.4183 42 48 38.4183 48 34V20C48 15.5817 44.4183 12 40 12H32.5L30.5528 8.10557C30.214 7.428 29.5215 7 28.7639 7H19.2361Z"/>
</mask>
<path d="M17.4472 8.10557L14.7639 6.76393L14.7639 6.76393L17.4472 8.10557ZM15.5 12V15H17.3541L18.1833 13.3416L15.5 12ZM32.5 12L29.8167 13.3416L30.6459 15H32.5V12ZM30.5528 8.10557L27.8695 9.44721L27.8695 9.44721L30.5528 8.10557ZM20.1305 9.44722C19.9611 9.786 19.6148 10 19.2361 10V4C17.3422 4 15.6109 5.07002 14.7639 6.76393L20.1305 9.44722ZM18.1833 13.3416L20.1305 9.44721L14.7639 6.76393L12.8167 10.6584L18.1833 13.3416ZM8 15H15.5V9H8V15ZM3 20C3 17.2386 5.23858 15 8 15V9C1.92487 9 -3 13.9249 -3 20H3ZM3 34V20H-3V34H3ZM8 39C5.23858 39 3 36.7614 3 34H-3C-3 40.0751 1.92487 45 8 45V39ZM40 39H8V45H40V39ZM45 34C45 36.7614 42.7614 39 40 39V45C46.0751 45 51 40.0751 51 34H45ZM45 20V34H51V20H45ZM40 15C42.7614 15 45 17.2386 45 20H51C51 13.9249 46.0751 9 40 9V15ZM32.5 15H40V9H32.5V15ZM27.8695 9.44721L29.8167 13.3416L35.1833 10.6584L33.2361 6.76393L27.8695 9.44721ZM28.7639 10C28.3852 10 28.0389 9.786 27.8695 9.44721L33.2361 6.76393C32.3891 5.07001 30.6578 4 28.7639 4V10ZM19.2361 10H28.7639V4H19.2361V10Z" fill="#152C5B" mask="url(#path-2-inside-1_24_71)"/>
<line x1="40.5" y1="18.5" x2="35.5" y2="18.5" stroke="#152C5B" stroke-width="3" stroke-linecap="round"/>
<circle cx="24" cy="27" r="8" stroke="#FF498B" stroke-width="3" stroke-linecap="round"/>
</svg>
