<svg width="48" height="48" viewBox="0 0 48 48" fill="none" xmlns="http://www.w3.org/2000/svg">
<rect width="48" height="48" fill="white"/>
<path d="M31 12.8V18" stroke="#152C5B" stroke-width="3" stroke-linecap="round"/>
<mask id="path-3-inside-1_60_21" fill="white">
<path d="M28 4C27.4477 4 27 4.44772 27 5L27 10C27 12.2091 28.7909 14 31 14C33.2091 14 35 12.2091 35 10L35 5C35 4.44772 34.5523 4 34 4L28 4Z"/>
</mask>
<path d="M28 4C27.4477 4 27 4.44772 27 5L27 10C27 12.2091 28.7909 14 31 14C33.2091 14 35 12.2091 35 10L35 5C35 4.44772 34.5523 4 34 4L28 4Z" stroke="#FF498B" stroke-width="6" mask="url(#path-3-inside-1_60_21)"/>
<path d="M17 12.8V18" stroke="#152C5B" stroke-width="3" stroke-linecap="round"/>
<mask id="path-5-inside-2_60_21" fill="white">
<path d="M14 4C13.4477 4 13 4.44772 13 5L13 10C13 12.2091 14.7909 14 17 14C19.2091 14 21 12.2091 21 10L21 5C21 4.44772 20.5523 4 20 4L14 4Z"/>
</mask>
<path d="M14 4C13.4477 4 13 4.44772 13 5L13 10C13 12.2091 14.7909 14 17 14C19.2091 14 21 12.2091 21 10L21 5C21 4.44772 20.5523 4 20 4L14 4Z" stroke="#FF498B" stroke-width="6" mask="url(#path-5-inside-2_60_21)"/>
<path d="M6.83489 20.7859C7.27581 19.9922 8.11236 19.5 9.02028 19.5H38.9797C39.8876 19.5 40.7242 19.9922 41.1651 20.7859L43.3873 24.7859C44.3131 26.4522 43.1082 28.5 41.2019 28.5H6.79806C4.89185 28.5 3.68693 26.4522 4.61266 24.7859L6.83489 20.7859Z" stroke="#152C5B" stroke-width="3"/>
<mask id="path-7-inside-3_60_21" fill="white">
<path d="M36 27C35.4477 27 35 27.4477 35 28L35 42C35 44.2091 36.7909 46 39 46C41.2091 46 43 44.2091 43 42L43 28C43 27.4477 42.5523 27 42 27L36 27Z"/>
</mask>
<path d="M36 27C35.4477 27 35 27.4477 35 28L35 42C35 44.2091 36.7909 46 39 46C41.2091 46 43 44.2091 43 42L43 28C43 27.4477 42.5523 27 42 27L36 27Z" stroke="#152C5B" stroke-width="6" mask="url(#path-7-inside-3_60_21)"/>
<mask id="path-8-inside-4_60_21" fill="white">
<path d="M6 27C5.44772 27 5 27.4477 5 28L5 42C5 44.2091 6.79086 46 9 46C11.2091 46 13 44.2091 13 42L13 28C13 27.4477 12.5523 27 12 27L6 27Z"/>
</mask>
<path d="M6 27C5.44772 27 5 27.4477 5 28L5 42C5 44.2091 6.79086 46 9 46C11.2091 46 13 44.2091 13 42L13 28C13 27.4477 12.5523 27 12 27L6 27Z" stroke="#152C5B" stroke-width="6" mask="url(#path-8-inside-4_60_21)"/>
</svg>
