<svg width="48" height="48" viewBox="0 0 48 48" fill="none" xmlns="http://www.w3.org/2000/svg">
<rect width="48" height="48" fill="white"/>
<rect width="48" height="48" fill="white"/>
<path d="M40 21L40 13V7.32843C40 6.79799 39.7893 6.28929 39.4142 5.91421L38.3096 4.80961C37.5706 4.07063 36.3873 4.02518 35.5938 4.70531L33.5 6.5" stroke="#FF498B" stroke-width="3" stroke-linecap="round"/>
<path d="M1.5 25C1.5 23.6193 2.61929 22.5 4 22.5H44C45.3807 22.5 46.5 23.6193 46.5 25V27C46.5 28.3807 45.3807 29.5 44 29.5H4C2.61929 29.5 1.5 28.3807 1.5 27V25Z" stroke="#152C5B" stroke-width="3"/>
<path d="M5.5 29.5H42.5V38C42.5 39.933 40.933 41.5 39 41.5H9C7.067 41.5 5.5 39.933 5.5 38V29.5Z" stroke="#152C5B" stroke-width="3"/>
<path d="M11 43V46" stroke="#152C5B" stroke-width="3" stroke-linecap="round"/>
<path d="M37 43V46" stroke="#152C5B" stroke-width="3" stroke-linecap="round"/>
</svg>
